#tb 0: 1171/11025
#media_type 0: video
#codec_id 0: rawvideo
#dimensions 0: 320x200
#sar 0: 0/1
0,          0,          0,        1,   192000, 0x7112a667
0,          1,          1,        1,   192000, 0x6936abf3
0,          2,          2,        1,   192000, 0xb1f08981
0,          3,          3,        1,   192000, 0x4ce7fece
0,          4,          4,        1,   192000, 0xf04decde
0,          5,          5,        1,   192000, 0x47fef74b
0,          6,          6,        1,   192000, 0x99b42ac2
0,          7,          7,        1,   192000, 0x3c4c419d
0,          8,          8,        1,   192000, 0x66bf5588
0,          9,          9,        1,   192000, 0xe1de4725
0,         10,         10,        1,   192000, 0x348b2af9
0,         11,         11,        1,   192000, 0x1ce73e83
0,         12,         12,        1,   192000, 0xcdaa6e02
0,         13,         13,        1,   192000, 0x370dc2ce
0,         14,         14,        1,   192000, 0x1e1e40fe
0,         15,         15,        1,   192000, 0x491470a4
0,         16,         16,        1,   192000, 0x88c43e9a
0,         17,         17,        1,   192000, 0x036f3f44
0,         18,         18,        1,   192000, 0xc8be7e25
0,         19,         19,        1,   192000, 0xbedb397d
0,         20,         20,        1,   192000, 0x97c410f4
0,         21,         21,        1,   192000, 0xc2c8225d
0,         22,         22,        1,   192000, 0xe396bccb
0,         23,         23,        1,   192000, 0x7e89c24c
0,         24,         24,        1,   192000, 0xb044954c
0,         25,         25,        1,   192000, 0x335890dd
0,         26,         26,        1,   192000, 0x58a457c0
0,         27,         27,        1,   192000, 0xeb0f4798
0,         28,         28,        1,   192000, 0x0bfc39a1
0,         29,         29,        1,   192000, 0x06a6905a
0,         30,         30,        1,   192000, 0x5300c99b
0,         31,         31,        1,   192000, 0x38f3f845
0,         32,         32,        1,   192000, 0x6afa3543
0,         33,         33,        1,   192000, 0x5106a8e0
0,         34,         34,        1,   192000, 0xc76f0dab
0,         35,         35,        1,   192000, 0x8efa6939
0,         36,         36,        1,   192000, 0x64ea23d7
0,         37,         37,        1,   192000, 0x421a2817
0,         38,         38,        1,   192000, 0xc854fa18
0,         39,         39,        1,   192000, 0x4a10d59c
0,         40,         40,        1,   192000, 0x72637829
0,         41,         41,        1,   192000, 0xdbbe2796
0,         42,         42,        1,   192000, 0xff742e6b
0,         43,         43,        1,   192000, 0xf94b9346
0,         44,         44,        1,   192000, 0xc90ea53c
0,         45,         45,        1,   192000, 0x177483bb
0,         46,         46,        1,   192000, 0x3510369c
0,         47,         47,        1,   192000, 0x501034bf
0,         48,         48,        1,   192000, 0x315c744b
0,         49,         49,        1,   192000, 0xdb5048ae
0,         50,         50,        1,   192000, 0x09a86221
0,         51,         51,        1,   192000, 0xb9c9568a
0,         52,         52,        1,   192000, 0x5eee665b
0,         53,         53,        1,   192000, 0xdef85517
0,         54,         54,        1,   192000, 0x7896b5ad
0,         55,         55,        1,   192000, 0x19fbad39
0,         56,         56,        1,   192000, 0x63358748
0,         57,         57,        1,   192000, 0xca0196a3
0,         58,         58,        1,   192000, 0x0b321da3
0,         59,         59,        1,   192000, 0xa07af07e
0,         60,         60,        1,   192000, 0x21f9310c
0,         61,         61,        1,   192000, 0x62d59874
0,         62,         62,        1,   192000, 0x021227b4
0,         63,         63,        1,   192000, 0x01dac0c2
0,         64,         64,        1,   192000, 0xf3c33a74
0,         65,         65,        1,   192000, 0xeebe83b7
0,         66,         66,        1,   192000, 0x9ec77f97
0,         67,         67,        1,   192000, 0xc91c2e37
0,         68,         68,        1,   192000, 0x7b58751d
0,         69,         69,        1,   192000, 0xb178dfbb
0,         70,         70,        1,   192000, 0x2a63b5be
0,         71,         71,        1,   192000, 0x44a407ac
0,         72,         72,        1,   192000, 0x9a8e17dd
0,         73,         73,        1,   192000, 0x5546f4c8
0,         74,         74,        1,   192000, 0xeda94586
0,         75,         75,        1,   192000, 0x941dfa6b
0,         76,         76,        1,   192000, 0x9772301d
0,         77,         77,        1,   192000, 0x8be16b16
0,         78,         78,        1,   192000, 0x26dd4496
0,         79,         79,        1,   192000, 0x27823797
0,         80,         80,        1,   192000, 0xacc914f7
0,         81,         81,        1,   192000, 0xcbb72c9b
0,         82,         82,        1,   192000, 0x4bd3391c
0,         83,         83,        1,   192000, 0x4e6adbfe
0,         84,         84,        1,   192000, 0x7a791c75
0,         85,         85,        1,   192000, 0xc4f59c94
0,         86,         86,        1,   192000, 0xc4f59c94
0,         87,         87,        1,   192000, 0x984a4a0b
0,         88,         88,        1,   192000, 0x3353f31f
0,         89,         89,        1,   192000, 0xa9d4dc5a
0,         90,         90,        1,   192000, 0xb33425d0
0,         91,         91,        1,   192000, 0x546d768a
0,         92,         92,        1,   192000, 0xfefbe5c9
0,         93,         93,        1,   192000, 0xbd6be61d
0,         94,         94,        1,   192000, 0xf5792731
0,         95,         95,        1,   192000, 0xccde0582
0,         96,         96,        1,   192000, 0x857d58ee
0,         97,         97,        1,   192000, 0xe914ce48
0,         98,         98,        1,   192000, 0x1f736298
0,         99,         99,        1,   192000, 0xec0b4846
0,        100,        100,        1,   192000, 0xe1422624
0,        101,        101,        1,   192000, 0x56e2b0e0
0,        102,        102,        1,   192000, 0xc4190640
0,        103,        103,        1,   192000, 0x7c461977
0,        104,        104,        1,   192000, 0x34b1d5e8
0,        105,        105,        1,   192000, 0xbdc70f7a
0,        106,        106,        1,   192000, 0xb466cd8d
0,        107,        107,        1,   192000, 0x0e86a04c
